<svg version="1.1" xmlns="http://www.w3.org/2000/svg" xmlns:xlink="http://www.w3.org/1999/xlink" width="900" height="622"><defs/><g><g transform="translate(-54,2) scale(1,1)"><path fill="none" stroke="#000000" d="M 64 8 L 944 8 L 944 610 L 64 610 L 64 8" stroke-miterlimit="10"/></g><g transform="translate(-54,2) scale(1,1)"><path fill="#ffffff" stroke="none" d="M 64 8 L 64 30 L 246.91796875 30 L 257.91796875 19 L 257.91796875 8 L 64 8"/></g><g transform="translate(-54,2) scale(1,1)"><path fill="none" stroke="#000000" d="M 64 8 L 64 30 L 246.91796875 30 L 257.91796875 19 L 257.91796875 8 L 64 8 L 64 8" stroke-miterlimit="10"/></g><g transform="translate(-54,2) scale(1,1)"><g><path fill="none" stroke="none"/><text fill="#000000" stroke="none" font-family="Arial" font-size="13px" font-style="normal" font-weight="normal" text-decoration="none" x="134.97900390625" y="25.5">View Notice Board</text></g></g><g transform="translate(-54,2) scale(1,1)"><g><path fill="none" stroke="none"/><text fill="#000000" stroke="none" font-family="Arial" font-size="13px" font-style="normal" font-weight="bold" text-decoration="none" x="69" y="25.5">interaction</text></g></g><g transform="translate(-54,2) scale(1,1)"><rect fill="#C0C0C0" stroke="none" x="159" y="47" width="84.76171875" height="39" opacity="0.2"/></g><g transform="translate(-54,2) scale(1,1)"><rect fill="#ffffff" stroke="none" x="152" y="40" width="84.76171875" height="39"/></g><g transform="translate(-54,2) scale(1,1)"><path fill="none" stroke="#000000" d="M 152 40 L 236.76171875 40 L 236.76171875 79 L 152 79 L 152 40 Z Z" stroke-miterlimit="10"/></g><g transform="translate(-54,2) scale(1,1)"><g><path fill="none" stroke="none"/><text fill="#000000" stroke="none" font-family="Arial" font-size="13px" font-style="normal" font-weight="bold" text-decoration="none" x="180.6572265625" y="59.5">User</text></g></g><g transform="translate(-54,2) scale(1,1)"><path fill="none" stroke="#000000" d="M 195.5 80 L 195.5 474" stroke-miterlimit="10" stroke-dasharray="3"/></g><g transform="translate(-54,2) scale(1,1)"><rect fill="#C0C0C0" stroke="none" x="399" y="47" width="71.736328125" height="39" opacity="0.2"/></g><g transform="translate(-54,2) scale(1,1)"><rect fill="#ffffff" stroke="none" x="392" y="40" width="71.736328125" height="39"/></g><g transform="translate(-54,2) scale(1,1)"><path fill="none" stroke="#000000" d="M 392 40 L 463.736328125 40 L 463.736328125 79 L 392 79 L 392 40 Z Z" stroke-miterlimit="10"/></g><g transform="translate(-54,2) scale(1,1)"><g><path fill="none" stroke="none"/><text fill="#000000" stroke="none" font-family="Arial" font-size="13px" font-style="normal" font-weight="bold" text-decoration="none" x="408" y="59.5">Device</text></g></g><g transform="translate(-54,2) scale(1,1)"><path fill="none" stroke="#000000" d="M 428.5 80 L 428.5 474" stroke-miterlimit="10" stroke-dasharray="3"/></g><g transform="translate(-54,2) scale(1,1)"><rect fill="#C0C0C0" stroke="none" x="583" y="219" width="158.40087890625" height="39" opacity="0.2"/></g><g transform="translate(-54,2) scale(1,1)"><rect fill="#ffffff" stroke="none" x="576" y="212" width="158.40087890625" height="39"/></g><g transform="translate(-54,2) scale(1,1)"><path fill="none" stroke="#000000" d="M 576 212 L 734.40087890625 212 L 734.40087890625 251 L 576 251 L 576 212 Z Z" stroke-miterlimit="10"/></g><g transform="translate(-54,2) scale(1,1)"><g><path fill="none" stroke="none"/><text fill="#000000" stroke="none" font-family="Arial" font-size="13px" font-style="normal" font-weight="bold" text-decoration="none" x="591.254150390625" y="231.5">NoticeBoardController</text></g></g><g transform="translate(-54,2) scale(1,1)"><path fill="none" stroke="#000000" d="M 656.5 252 L 656.5 426" stroke-miterlimit="10" stroke-dasharray="3"/></g><g transform="translate(-54,2) scale(1,1)"><rect fill="#C0C0C0" stroke="none" x="783" y="47" width="71.736328125" height="39" opacity="0.2"/></g><g transform="translate(-54,2) scale(1,1)"><rect fill="#ffffff" stroke="none" x="776" y="40" width="71.736328125" height="39"/></g><g transform="translate(-54,2) scale(1,1)"><path fill="none" stroke="#000000" d="M 776 40 L 847.736328125 40 L 847.736328125 79 L 776 79 L 776 40 Z Z" stroke-miterlimit="10"/></g><g transform="translate(-54,2) scale(1,1)"><g><path fill="none" stroke="none"/><text fill="#000000" stroke="none" font-family="Arial" font-size="13px" font-style="normal" font-weight="bold" text-decoration="none" x="794.523193359375" y="59.5">Route</text></g></g><g transform="translate(-54,2) scale(1,1)"><path fill="none" stroke="#000000" d="M 812.5 80 L 812.5 386" stroke-miterlimit="10" stroke-dasharray="3"/></g><g transform="translate(-54,2) scale(1,1)"><rect fill="#ffffff" stroke="none" x="336" y="136" width="174.470703125" height="72"/></g><g transform="translate(-54,2) scale(1,1)"><path fill="none" stroke="#000000" d="M 336 136 L 510.470703125 136 L 510.470703125 208 L 336 208 L 336 136 Z Z" stroke-miterlimit="10"/></g><g transform="translate(-54,2) scale(1,1)"><path fill="none" stroke="#000000" d="M 336 136 L 336 158 L 361.1708984375 158 L 372.1708984375 147 L 372.1708984375 136 L 336 136 L 336 136" stroke-miterlimit="10"/></g><g transform="translate(-54,2) scale(1,1)"><g><path fill="none" stroke="none"/><text fill="#000000" stroke="none" font-family="Arial" font-size="13px" font-style="normal" font-weight="normal" text-decoration="none" x="340.5" y="178.5">Login(accountID, password )</text></g></g><g transform="translate(-54,2) scale(1,1)"><g><path fill="none" stroke="none"/><text fill="#000000" stroke="none" font-family="Arial" font-size="13px" font-style="normal" font-weight="normal" text-decoration="none" x="341" y="153.5">ref</text></g></g><g transform="translate(-54,2) scale(1,1)"><path fill="none" stroke="#000000" d="M 428 232 L 576 232" stroke-miterlimit="10" stroke-dasharray="3"/></g><g transform="translate(-54,2) scale(1,1)"><path fill="none" stroke="#000000" d="M 565.8373251423759 236.209517756016 L 576 232 L 565.8373251423758 227.790482243984" stroke-miterlimit="10"/></g><g transform="translate(-54,2) scale(1,1)"><g><path fill="none" stroke="none"/><text fill="#000000" stroke="none" font-family="Arial" font-size="13px" font-style="normal" font-weight="normal" text-decoration="none" x="492.5" y="228.5">1 : </text></g></g><g transform="translate(-54,2) scale(1,1)"><g><path fill="none" stroke="none"/><text fill="#000000" stroke="none" font-family="Arial" font-size="13px" font-style="normal" font-weight="normal" text-decoration="none" x="507.5" y="228.5">«create»</text></g></g><g transform="translate(-54,2) scale(1,1)"><path fill="none" stroke="#000000" d="M 428 288 L 649 288" stroke-miterlimit="10"/></g><g transform="translate(-54,2) scale(1,1)"><path fill="#000000" stroke="none" d="M 638.8373251423759 292.209517756016 L 649 288 L 638.8373251423758 283.790482243984"/></g><g transform="translate(-54,2) scale(1,1)"><path fill="none" stroke="#000000" d="M 638.8373251423759 292.209517756016 L 649 288 L 638.8373251423758 283.790482243984 L 638.8373251423759 292.209517756016" stroke-miterlimit="10"/></g><g transform="translate(-54,2) scale(1,1)"><g><path fill="none" stroke="none"/><text fill="#000000" stroke="none" font-family="Arial" font-size="13px" font-style="normal" font-weight="normal" text-decoration="none" x="499.5" y="284.5">2 : getRoutes</text></g></g><g transform="translate(-54,2) scale(1,1)"><rect fill="#ffffff" stroke="none" x="649" y="288" width="13" height="28"/></g><g transform="translate(-54,2) scale(1,1)"><path fill="none" stroke="#000000" d="M 649 288 L 662 288 L 662 316 L 649 316 L 649 288 Z Z" stroke-miterlimit="10"/></g><g transform="translate(-54,2) scale(1,1)"><path fill="none" stroke="#000000" d="M 656 344 L 805 344" stroke-miterlimit="10"/></g><g transform="translate(-54,2) scale(1,1)"><path fill="#000000" stroke="none" d="M 794.8373251423759 348.209517756016 L 805 344 L 794.8373251423758 339.790482243984"/></g><g transform="translate(-54,2) scale(1,1)"><path fill="none" stroke="#000000" d="M 794.8373251423759 348.209517756016 L 805 344 L 794.8373251423758 339.790482243984 L 794.8373251423759 348.209517756016" stroke-miterlimit="10"/></g><g transform="translate(-54,2) scale(1,1)"><g><path fill="none" stroke="none"/><text fill="#000000" stroke="none" font-family="Arial" font-size="13px" font-style="normal" font-weight="normal" text-decoration="none" x="692.5" y="340.5">3 : createList</text></g></g><g transform="translate(-54,2) scale(1,1)"><rect fill="#ffffff" stroke="none" x="805" y="344" width="13" height="28"/></g><g transform="translate(-54,2) scale(1,1)"><path fill="none" stroke="#000000" d="M 805 344 L 818 344 L 818 372 L 805 372 L 805 344 Z Z" stroke-miterlimit="10"/></g><g transform="translate(-54,2) scale(1,1)"><path fill="none" stroke="#000000" d="M 656 384 L 434 384" stroke-miterlimit="10"/></g><g transform="translate(-54,2) scale(1,1)"><path fill="#000000" stroke="none" d="M 444.16267485762415 379.790482243984 L 434 384 L 444.16267485762415 388.209517756016"/></g><g transform="translate(-54,2) scale(1,1)"><path fill="none" stroke="#000000" d="M 444.16267485762415 379.790482243984 L 434 384 L 444.16267485762415 388.209517756016 L 444.16267485762415 379.790482243984" stroke-miterlimit="10"/></g><g transform="translate(-54,2) scale(1,1)"><g><path fill="none" stroke="none"/><text fill="#000000" stroke="none" font-family="Arial" font-size="13px" font-style="normal" font-weight="normal" text-decoration="none" x="494.5" y="400.5">4 : displayRoutes</text></g></g><g transform="translate(-54,2) scale(1,1)"><rect fill="#ffffff" stroke="none" x="421" y="384" width="13" height="28"/></g><g transform="translate(-54,2) scale(1,1)"><path fill="none" stroke="#000000" d="M 421 384 L 434 384 L 434 412 L 421 412 L 421 384 Z Z" stroke-miterlimit="10"/></g><g transform="translate(-54,2) scale(1,1)"><path fill="none" stroke="#000000" d="M 428 432 L 201 432" stroke-miterlimit="10"/></g><g transform="translate(-54,2) scale(1,1)"><path fill="#000000" stroke="none" d="M 211.16267485762415 427.790482243984 L 201 432 L 211.16267485762415 436.209517756016"/></g><g transform="translate(-54,2) scale(1,1)"><path fill="none" stroke="#000000" d="M 211.16267485762415 427.790482243984 L 201 432 L 211.16267485762415 436.209517756016 L 211.16267485762415 427.790482243984" stroke-miterlimit="10"/></g><g transform="translate(-54,2) scale(1,1)"><g><path fill="none" stroke="none"/><text fill="#000000" stroke="none" font-family="Arial" font-size="13px" font-style="normal" font-weight="normal" text-decoration="none" x="263.5" y="448.5">5 : displayRoutes</text></g></g><g transform="translate(-54,2) scale(1,1)"><rect fill="#ffffff" stroke="none" x="188" y="432" width="13" height="28"/></g><g transform="translate(-54,2) scale(1,1)"><path fill="none" stroke="#000000" d="M 188 432 L 201 432 L 201 460 L 188 460 L 188 432 Z Z" stroke-miterlimit="10"/></g></g></svg>