<svg version="1.1" xmlns="http://www.w3.org/2000/svg" xmlns:xlink="http://www.w3.org/1999/xlink" width="834.22998046875" height="628"><defs/><g><g transform="translate(-198,-86) scale(1,1)"><rect fill="#C0C0C0" stroke="none" x="367" y="103" width="519" height="608" opacity="0.2"/></g><g transform="translate(-198,-86) scale(1,1)"><rect fill="#ffffff" stroke="none" x="360" y="96" width="519" height="608"/></g><g transform="translate(-198,-86) scale(1,1)"><path fill="none" stroke="#000000" d="M 360 96 L 879 96 L 879 704 L 360 704 L 360 96 Z Z" stroke-miterlimit="10"/></g><g transform="translate(-198,-86) scale(1,1)"><g><path fill="none" stroke="none"/><text fill="#000000" stroke="none" font-family="Arial" font-size="18px" font-style="normal" font-weight="bold" text-decoration="none" x="589.494140625" y="120.5">Bus Mi!</text></g></g><g transform="translate(-198,-86) scale(1,1)"><path fill="#ffffff" stroke="none" d="M 236.70158664772728 353.68 C 236.70158664772728 348.886167936 240.58742897267274 345 245.380859375 345 C 250.17428977732726 345 254.06013210227272 348.886167936 254.06013210227272 353.68 C 254.06013210227272 358.473832064 250.17428977732726 362.36 245.380859375 362.36 C 240.58742897267274 362.36 236.70158664772728 358.473832064 236.70158664772728 353.68 Z"/></g><g transform="translate(-198,-86) scale(1,1)"><path fill="none" stroke="#000000" d="M 236.70158664772728 353.68 C 236.70158664772728 348.886167936 240.58742897267274 345 245.380859375 345 C 250.17428977732726 345 254.06013210227272 348.886167936 254.06013210227272 353.68 C 254.06013210227272 358.473832064 250.17428977732726 362.36 245.380859375 362.36 C 240.58742897267274 362.36 236.70158664772728 358.473832064 236.70158664772728 353.68 Z" stroke-miterlimit="10"/></g><g transform="translate(-198,-86) scale(1,1)"><path fill="none" stroke="#000000" d="M 245.380859375 362.36 L 245.380859375 379.64" stroke-miterlimit="10"/></g><g transform="translate(-198,-86) scale(1,1)"><path fill="none" stroke="#000000" d="M 236.19104119318183 368.84 L 254.57067755681817 368.84" stroke-miterlimit="10"/></g><g transform="translate(-198,-86) scale(1,1)"><path fill="none" stroke="#000000" d="M 245.380859375 379.64 L 232.61722301136365 397" stroke-miterlimit="10"/></g><g transform="translate(-198,-86) scale(1,1)"><path fill="none" stroke="#000000" d="M 245.380859375 379.64 L 258.14449573863635 397" stroke-miterlimit="10"/></g><g transform="translate(-198,-86) scale(1,1)"><g><path fill="none" stroke="none"/><text fill="#000000" stroke="none" font-family="Arial" font-size="13px" font-style="normal" font-weight="bold" text-decoration="none" x="214.305908203125" y="417.5">Passenger</text></g></g><g transform="translate(-198,-86) scale(1,1)"><path fill="#C0C0C0" stroke="none" d="M 559 192 C 559 182.6111584 581.6096176 175 609.5 175 C 637.3903824 175 660 182.6111584 660 192 C 660 201.3888416 637.3903824 209 609.5 209 C 581.6096176 209 559 201.3888416 559 192 Z" opacity="0.2"/></g><g transform="translate(-198,-86) scale(1,1)"><path fill="#ffffff" stroke="none" d="M 552 185 C 552 175.6111584 574.6096176 168 602.5 168 C 630.3903824 168 653 175.6111584 653 185 C 653 194.3888416 630.3903824 202 602.5 202 C 574.6096176 202 552 194.3888416 552 185 Z"/></g><g transform="translate(-198,-86) scale(1,1)"><path fill="none" stroke="#000000" d="M 552 185 C 552 175.6111584 574.6096176 168 602.5 168 C 630.3903824 168 653 175.6111584 653 185 C 653 194.3888416 630.3903824 202 602.5 202 C 574.6096176 202 552 194.3888416 552 185 Z" stroke-miterlimit="10"/></g><g transform="translate(-198,-86) scale(1,1)"><g><path fill="none" stroke="none"/><text fill="#000000" stroke="none" font-family="Arial" font-size="13px" font-style="normal" font-weight="bold" text-decoration="none" x="586.595947265625" y="192">Login</text></g></g><g transform="translate(-198,-86) scale(1,1)"><path fill="none" stroke="#000000" d="M 284 362 L 570 203" stroke-miterlimit="10"/></g><g transform="translate(-198,-86) scale(1,1)"><path fill="#ffffff" stroke="none" d="M 966.4357175071023 361.68 C 966.4357175071023 356.886167936 970.3215598320477 353 975.114990234375 353 C 979.9084206367023 353 983.7942629616477 356.886167936 983.7942629616477 361.68 C 983.7942629616477 366.473832064 979.9084206367023 370.36 975.114990234375 370.36 C 970.3215598320477 370.36 966.4357175071023 366.473832064 966.4357175071023 361.68 Z"/></g><g transform="translate(-198,-86) scale(1,1)"><path fill="none" stroke="#000000" d="M 966.4357175071023 361.68 C 966.4357175071023 356.886167936 970.3215598320477 353 975.114990234375 353 C 979.9084206367023 353 983.7942629616477 356.886167936 983.7942629616477 361.68 C 983.7942629616477 366.473832064 979.9084206367023 370.36 975.114990234375 370.36 C 970.3215598320477 370.36 966.4357175071023 366.473832064 966.4357175071023 361.68 Z" stroke-miterlimit="10"/></g><g transform="translate(-198,-86) scale(1,1)"><path fill="none" stroke="#000000" d="M 975.114990234375 370.36 L 975.114990234375 387.64" stroke-miterlimit="10"/></g><g transform="translate(-198,-86) scale(1,1)"><path fill="none" stroke="#000000" d="M 965.9251720525568 376.84 L 984.3048084161932 376.84" stroke-miterlimit="10"/></g><g transform="translate(-198,-86) scale(1,1)"><path fill="none" stroke="#000000" d="M 975.114990234375 387.64 L 962.3513538707386 405" stroke-miterlimit="10"/></g><g transform="translate(-198,-86) scale(1,1)"><path fill="none" stroke="#000000" d="M 975.114990234375 387.64 L 987.8786265980114 405" stroke-miterlimit="10"/></g><g transform="translate(-198,-86) scale(1,1)"><g><path fill="none" stroke="none"/><text fill="#000000" stroke="none" font-family="Arial" font-size="13px" font-style="normal" font-weight="bold" text-decoration="none" x="936.825927734375" y="425.5">Administrator</text></g></g><g transform="translate(-198,-86) scale(1,1)"><path fill="none" stroke="#000000" d="M 635 203 L 927 364" stroke-miterlimit="10"/></g><g transform="translate(-198,-86) scale(1,1)"><path fill="#C0C0C0" stroke="none" d="M 519 264 C 519 254.6111584 556.8319344 247 603.5 247 C 650.1680656 247 688 254.6111584 688 264 C 688 273.3888416 650.1680656 281 603.5 281 C 556.8319344 281 519 273.3888416 519 264 Z" opacity="0.2"/></g><g transform="translate(-198,-86) scale(1,1)"><path fill="#ffffff" stroke="none" d="M 512 257 C 512 247.6111584 549.8319344 240 596.5 240 C 643.1680656 240 681 247.6111584 681 257 C 681 266.3888416 643.1680656 274 596.5 274 C 549.8319344 274 512 266.3888416 512 257 Z"/></g><g transform="translate(-198,-86) scale(1,1)"><path fill="none" stroke="#000000" d="M 512 257 C 512 247.6111584 549.8319344 240 596.5 240 C 643.1680656 240 681 247.6111584 681 257 C 681 266.3888416 643.1680656 274 596.5 274 C 549.8319344 274 512 266.3888416 512 257 Z" stroke-miterlimit="10"/></g><g transform="translate(-198,-86) scale(1,1)"><g><path fill="none" stroke="none"/><text fill="#000000" stroke="none" font-family="Arial" font-size="13px" font-style="normal" font-weight="bold" text-decoration="none" x="544.83642578125" y="264">View NoticeBoard</text></g></g><g transform="translate(-198,-86) scale(1,1)"><path fill="none" stroke="#000000" d="M 284 369 L 546 275" stroke-miterlimit="10"/></g><g transform="translate(-198,-86) scale(1,1)"><path fill="none" stroke="#000000" d="M 927 374 L 647 275" stroke-miterlimit="10"/></g><g transform="translate(-198,-86) scale(1,1)"><path fill="#C0C0C0" stroke="none" d="M 431 352 C 431 342.6111584 456.0720512 335 487 335 C 517.9279488 335 543 342.6111584 543 352 C 543 361.3888416 517.9279488 369 487 369 C 456.0720512 369 431 361.3888416 431 352 Z" opacity="0.2"/></g><g transform="translate(-198,-86) scale(1,1)"><path fill="#ffffff" stroke="none" d="M 424 345 C 424 335.6111584 449.0720512 328 480 328 C 510.9279488 328 536 335.6111584 536 345 C 536 354.3888416 510.9279488 362 480 362 C 449.0720512 362 424 354.3888416 424 345 Z"/></g><g transform="translate(-198,-86) scale(1,1)"><path fill="none" stroke="#000000" d="M 424 345 C 424 335.6111584 449.0720512 328 480 328 C 510.9279488 328 536 335.6111584 536 345 C 536 354.3888416 510.9279488 362 480 362 C 449.0720512 362 424 354.3888416 424 345 Z" stroke-miterlimit="10"/></g><g transform="translate(-198,-86) scale(1,1)"><g><path fill="none" stroke="none"/><text fill="#000000" stroke="none" font-family="Arial" font-size="13px" font-style="normal" font-weight="bold" text-decoration="none" x="446.760498046875" y="352">View Route</text></g></g><g transform="translate(-198,-86) scale(1,1)"><path fill="none" stroke="#000000" d="M 284 377 L 423 354" stroke-miterlimit="10"/></g><g transform="translate(-198,-86) scale(1,1)"><path fill="#C0C0C0" stroke="none" d="M 423 424 C 423 414.6111584 452.5492032 407 489 407 C 525.4507968 407 555 414.6111584 555 424 C 555 433.3888416 525.4507968 441 489 441 C 452.5492032 441 423 433.3888416 423 424 Z" opacity="0.2"/></g><g transform="translate(-198,-86) scale(1,1)"><path fill="#ffffff" stroke="none" d="M 416 417 C 416 407.6111584 445.5492032 400 482 400 C 518.4507968 400 548 407.6111584 548 417 C 548 426.3888416 518.4507968 434 482 434 C 445.5492032 434 416 426.3888416 416 417 Z"/></g><g transform="translate(-198,-86) scale(1,1)"><path fill="none" stroke="#000000" d="M 416 417 C 416 407.6111584 445.5492032 400 482 400 C 518.4507968 400 548 407.6111584 548 417 C 548 426.3888416 518.4507968 434 482 434 C 445.5492032 434 416 426.3888416 416 417 Z" stroke-miterlimit="10"/></g><g transform="translate(-198,-86) scale(1,1)"><g><path fill="none" stroke="none"/><text fill="#000000" stroke="none" font-family="Arial" font-size="13px" font-style="normal" font-weight="bold" text-decoration="none" x="442.615966796875" y="424">Post to Route</text></g></g><g transform="translate(-198,-86) scale(1,1)"><path fill="none" stroke="#000000" d="M 481 363 L 482 399" stroke-miterlimit="10" stroke-dasharray="3"/></g><g transform="translate(-198,-86) scale(1,1)"><path fill="none" stroke="#000000" d="M 477.50991767097923 388.9581296224948 L 482 399 L 485.9257069767938 388.72435769733335" stroke-miterlimit="10"/></g><g transform="translate(-198,-86) scale(1,1)"><g><path fill="none" stroke="none"/><text fill="#000000" stroke="none" font-family="Arial" font-size="13px" font-style="normal" font-weight="normal" text-decoration="none" x="486.5" y="382.5">«extend»</text></g></g><g transform="translate(-198,-86) scale(1,1)"><path fill="#C0C0C0" stroke="none" d="M 583 440 C 583 430.6111584 606.505048 423 635.5 423 C 664.494952 423 688 430.6111584 688 440 C 688 449.3888416 664.494952 457 635.5 457 C 606.505048 457 583 449.3888416 583 440 Z" opacity="0.2"/></g><g transform="translate(-198,-86) scale(1,1)"><path fill="#ffffff" stroke="none" d="M 576 433 C 576 423.6111584 599.505048 416 628.5 416 C 657.494952 416 681 423.6111584 681 433 C 681 442.3888416 657.494952 450 628.5 450 C 599.505048 450 576 442.3888416 576 433 Z"/></g><g transform="translate(-198,-86) scale(1,1)"><path fill="none" stroke="#000000" d="M 576 433 C 576 423.6111584 599.505048 416 628.5 416 C 657.494952 416 681 423.6111584 681 433 C 681 442.3888416 657.494952 450 628.5 450 C 599.505048 450 576 442.3888416 576 433 Z" stroke-miterlimit="10"/></g><g transform="translate(-198,-86) scale(1,1)"><g><path fill="none" stroke="none"/><text fill="#000000" stroke="none" font-family="Arial" font-size="13px" font-style="normal" font-weight="bold" text-decoration="none" x="598.15185546875" y="440">Get Points</text></g></g><g transform="translate(-198,-86) scale(1,1)"><path fill="none" stroke="#000000" d="M 575 427 L 549 424" stroke-miterlimit="10" stroke-dasharray="3"/></g><g transform="translate(-198,-86) scale(1,1)"><path fill="none" stroke="#000000" d="M 559.5782042337476 420.9831149857636 L 549 424 L 558.6131797980859 429.34666009483254" stroke-miterlimit="10"/></g><g transform="translate(-198,-86) scale(1,1)"><g><path fill="none" stroke="none"/><text fill="#000000" stroke="none" font-family="Arial" font-size="13px" font-style="normal" font-weight="normal" text-decoration="none" x="520.5" y="448.5">«extend»</text></g></g><g transform="translate(-198,-86) scale(1,1)"><path fill="#C0C0C0" stroke="none" d="M 455 536 C 455 526.6111584 484.101488 519 520 519 C 555.898512 519 585 526.6111584 585 536 C 585 545.3888416 555.898512 553 520 553 C 484.101488 553 455 545.3888416 455 536 Z" opacity="0.2"/></g><g transform="translate(-198,-86) scale(1,1)"><path fill="#ffffff" stroke="none" d="M 448 529 C 448 519.6111584 477.101488 512 513 512 C 548.898512 512 578 519.6111584 578 529 C 578 538.3888416 548.898512 546 513 546 C 477.101488 546 448 538.3888416 448 529 Z"/></g><g transform="translate(-198,-86) scale(1,1)"><path fill="none" stroke="#000000" d="M 448 529 C 448 519.6111584 477.101488 512 513 512 C 548.898512 512 578 519.6111584 578 529 C 578 538.3888416 548.898512 546 513 546 C 477.101488 546 448 538.3888416 448 529 Z" stroke-miterlimit="10"/></g><g transform="translate(-198,-86) scale(1,1)"><g><path fill="none" stroke="none"/><text fill="#000000" stroke="none" font-family="Arial" font-size="13px" font-style="normal" font-weight="bold" text-decoration="none" x="474.345947265625" y="536">Check Profile</text></g></g><g transform="translate(-198,-86) scale(1,1)"><path fill="none" stroke="#000000" d="M 284 404 L 480 511" stroke-miterlimit="10"/></g><g transform="translate(-198,-86) scale(1,1)"><path fill="#C0C0C0" stroke="none" d="M 623 536 C 623 526.6111584 652.9969184 519 690 519 C 727.0030816 519 757 526.6111584 757 536 C 757 545.3888416 727.0030816 553 690 553 C 652.9969184 553 623 545.3888416 623 536 Z" opacity="0.2"/></g><g transform="translate(-198,-86) scale(1,1)"><path fill="#ffffff" stroke="none" d="M 616 529 C 616 519.6111584 645.9969184 512 683 512 C 720.0030816 512 750 519.6111584 750 529 C 750 538.3888416 720.0030816 546 683 546 C 645.9969184 546 616 538.3888416 616 529 Z"/></g><g transform="translate(-198,-86) scale(1,1)"><path fill="none" stroke="#000000" d="M 616 529 C 616 519.6111584 645.9969184 512 683 512 C 720.0030816 512 750 519.6111584 750 529 C 750 538.3888416 720.0030816 546 683 546 C 645.9969184 546 616 538.3888416 616 529 Z" stroke-miterlimit="10"/></g><g transform="translate(-198,-86) scale(1,1)"><g><path fill="none" stroke="none"/><text fill="#000000" stroke="none" font-family="Arial" font-size="13px" font-style="normal" font-weight="bold" text-decoration="none" x="642.1845703125" y="536">Claim Reward</text></g></g><g transform="translate(-198,-86) scale(1,1)"><path fill="#C0C0C0" stroke="none" d="M 703 472 C 703 462.6111584 735.2354944 455 775 455 C 814.7645056 455 847 462.6111584 847 472 C 847 481.3888416 814.7645056 489 775 489 C 735.2354944 489 703 481.3888416 703 472 Z" opacity="0.2"/></g><g transform="translate(-198,-86) scale(1,1)"><path fill="#ffffff" stroke="none" d="M 696 465 C 696 455.6111584 728.2354944 448 768 448 C 807.7645056 448 840 455.6111584 840 465 C 840 474.3888416 807.7645056 482 768 482 C 728.2354944 482 696 474.3888416 696 465 Z"/></g><g transform="translate(-198,-86) scale(1,1)"><path fill="none" stroke="#000000" d="M 696 465 C 696 455.6111584 728.2354944 448 768 448 C 807.7645056 448 840 455.6111584 840 465 C 840 474.3888416 807.7645056 482 768 482 C 728.2354944 482 696 474.3888416 696 465 Z" stroke-miterlimit="10"/></g><g transform="translate(-198,-86) scale(1,1)"><g><path fill="none" stroke="none"/><text fill="#000000" stroke="none" font-family="Arial" font-size="13px" font-style="normal" font-weight="bold" text-decoration="none" x="725.37548828125" y="472">Confirm Points</text></g></g><g transform="translate(-198,-86) scale(1,1)"><path fill="none" stroke="#000000" d="M 818 447 L 927 408" stroke-miterlimit="10"/></g><g transform="translate(-198,-86) scale(1,1)"><path fill="#C0C0C0" stroke="none" d="M 639 384 C 639 374.6111584 681.3090864 367 733.5 367 C 785.6909136 367 828 374.6111584 828 384 C 828 393.3888416 785.6909136 401 733.5 401 C 681.3090864 401 639 393.3888416 639 384 Z" opacity="0.2"/></g><g transform="translate(-198,-86) scale(1,1)"><path fill="#ffffff" stroke="none" d="M 632 377 C 632 367.6111584 674.3090864 360 726.5 360 C 778.6909136 360 821 367.6111584 821 377 C 821 386.3888416 778.6909136 394 726.5 394 C 674.3090864 394 632 386.3888416 632 377 Z"/></g><g transform="translate(-198,-86) scale(1,1)"><path fill="none" stroke="#000000" d="M 632 377 C 632 367.6111584 674.3090864 360 726.5 360 C 778.6909136 360 821 367.6111584 821 377 C 821 386.3888416 778.6909136 394 726.5 394 C 674.3090864 394 632 386.3888416 632 377 Z" stroke-miterlimit="10"/></g><g transform="translate(-198,-86) scale(1,1)"><g><path fill="none" stroke="none"/><text fill="#000000" stroke="none" font-family="Arial" font-size="13px" font-style="normal" font-weight="bold" text-decoration="none" x="668.69189453125" y="384">Post to NoticeBoard</text></g></g><g transform="translate(-198,-86) scale(1,1)"><path fill="none" stroke="#000000" d="M 822 382 L 927 388" stroke-miterlimit="10"/></g><g transform="translate(-198,-86) scale(1,1)"><path fill="#C0C0C0" stroke="none" d="M 551 672 C 551 662.6111584 573.6096176 655 601.5 655 C 629.3903824 655 652 662.6111584 652 672 C 652 681.3888416 629.3903824 689 601.5 689 C 573.6096176 689 551 681.3888416 551 672 Z" opacity="0.2"/></g><g transform="translate(-198,-86) scale(1,1)"><path fill="#ffffff" stroke="none" d="M 544 665 C 544 655.6111584 566.6096176 648 594.5 648 C 622.3903824 648 645 655.6111584 645 665 C 645 674.3888416 622.3903824 682 594.5 682 C 566.6096176 682 544 674.3888416 544 665 Z"/></g><g transform="translate(-198,-86) scale(1,1)"><path fill="none" stroke="#000000" d="M 544 665 C 544 655.6111584 566.6096176 648 594.5 648 C 622.3903824 648 645 655.6111584 645 665 C 645 674.3888416 622.3903824 682 594.5 682 C 566.6096176 682 544 674.3888416 544 665 Z" stroke-miterlimit="10"/></g><g transform="translate(-198,-86) scale(1,1)"><g><path fill="none" stroke="none"/><text fill="#000000" stroke="none" font-family="Arial" font-size="13px" font-style="normal" font-weight="bold" text-decoration="none" x="574.619140625" y="672">Logout</text></g></g><g transform="translate(-198,-86) scale(1,1)"><path fill="none" stroke="#000000" d="M 284 414 L 572 647" stroke-miterlimit="10"/></g><g transform="translate(-198,-86) scale(1,1)"><path fill="none" stroke="#000000" d="M 619 647 L 927 426" stroke-miterlimit="10"/></g><g transform="translate(-198,-86) scale(1,1)"><path fill="none" stroke="#000000" d="M 615 529 L 579 529" stroke-miterlimit="10" stroke-dasharray="3"/></g><g transform="translate(-198,-86) scale(1,1)"><path fill="none" stroke="#000000" d="M 589.1626748576241 524.790482243984 L 579 529 L 589.1626748576241 533.209517756016" stroke-miterlimit="10"/></g><g transform="translate(-198,-86) scale(1,1)"><g><path fill="none" stroke="none"/><text fill="#000000" stroke="none" font-family="Arial" font-size="13px" font-style="normal" font-weight="normal" text-decoration="none" x="569.5" y="548.5">«extend»</text></g></g></g></svg>