<svg version="1.1" xmlns="http://www.w3.org/2000/svg" xmlns:xlink="http://www.w3.org/1999/xlink" width="714" height="614"><defs/><g><g transform="translate(-62,-6) scale(1,1)"><path fill="none" stroke="#000000" d="M 72 16 L 766 16 L 766 610 L 72 610 L 72 16" stroke-miterlimit="10"/></g><g transform="translate(-62,-6) scale(1,1)"><path fill="#ffffff" stroke="none" d="M 72 16 L 72 38 L 262.88427734375 38 L 273.88427734375 27 L 273.88427734375 16 L 72 16"/></g><g transform="translate(-62,-6) scale(1,1)"><path fill="none" stroke="#000000" d="M 72 16 L 72 38 L 262.88427734375 38 L 273.88427734375 27 L 273.88427734375 16 L 72 16 L 72 16" stroke-miterlimit="10"/></g><g transform="translate(-62,-6) scale(1,1)"><g><path fill="none" stroke="none"/><text fill="#000000" stroke="none" font-family="Arial" font-size="13px" font-style="normal" font-weight="normal" text-decoration="none" x="142.97900390625" y="33.5">SequenceDiagram1</text></g></g><g transform="translate(-62,-6) scale(1,1)"><g><path fill="none" stroke="none"/><text fill="#000000" stroke="none" font-family="Arial" font-size="13px" font-style="normal" font-weight="bold" text-decoration="none" x="77" y="33.5">interaction</text></g></g><g transform="translate(-62,-6) scale(1,1)"><rect fill="#C0C0C0" stroke="none" x="127" y="47" width="71.736328125" height="39" opacity="0.2"/></g><g transform="translate(-62,-6) scale(1,1)"><rect fill="#ffffff" stroke="none" x="120" y="40" width="71.736328125" height="39"/></g><g transform="translate(-62,-6) scale(1,1)"><path fill="none" stroke="#000000" d="M 120 40 L 191.736328125 40 L 191.736328125 79 L 120 79 L 120 40 Z Z" stroke-miterlimit="10"/></g><g transform="translate(-62,-6) scale(1,1)"><g><path fill="none" stroke="none"/><text fill="#000000" stroke="none" font-family="Arial" font-size="13px" font-style="normal" font-weight="bold" text-decoration="none" x="142.14453125" y="59.5">User</text></g></g><g transform="translate(-62,-6) scale(1,1)"><path fill="none" stroke="#000000" d="M 156.5 80 L 156.5 239" stroke-miterlimit="10" stroke-dasharray="3"/></g><g transform="translate(-62,-6) scale(1,1)"><rect fill="#C0C0C0" stroke="none" x="311" y="47" width="71.736328125" height="39" opacity="0.2"/></g><g transform="translate(-62,-6) scale(1,1)"><rect fill="#ffffff" stroke="none" x="304" y="40" width="71.736328125" height="39"/></g><g transform="translate(-62,-6) scale(1,1)"><path fill="none" stroke="#000000" d="M 304 40 L 375.736328125 40 L 375.736328125 79 L 304 79 L 304 40 Z Z" stroke-miterlimit="10"/></g><g transform="translate(-62,-6) scale(1,1)"><g><path fill="none" stroke="none"/><text fill="#000000" stroke="none" font-family="Arial" font-size="13px" font-style="normal" font-weight="bold" text-decoration="none" x="320" y="59.5">Device</text></g></g><g transform="translate(-62,-6) scale(1,1)"><path fill="none" stroke="#000000" d="M 340.5 80 L 340.5 394" stroke-miterlimit="10" stroke-dasharray="3"/></g><g transform="translate(-62,-6) scale(1,1)"><rect fill="#C0C0C0" stroke="none" x="487" y="203" width="127.31640625" height="39" opacity="0.2"/></g><g transform="translate(-62,-6) scale(1,1)"><rect fill="#ffffff" stroke="none" x="480" y="196" width="127.31640625" height="39"/></g><g transform="translate(-62,-6) scale(1,1)"><path fill="none" stroke="#000000" d="M 480 196 L 607.31640625 196 L 607.31640625 235 L 480 235 L 480 196 Z Z" stroke-miterlimit="10"/></g><g transform="translate(-62,-6) scale(1,1)"><g><path fill="none" stroke="none"/><text fill="#000000" stroke="none" font-family="Arial" font-size="13px" font-style="normal" font-weight="bold" text-decoration="none" x="495.60009765625" y="215.5">LogoutController</text></g></g><g transform="translate(-62,-6) scale(1,1)"><path fill="none" stroke="#000000" d="M 544.5 236 L 544.5 395" stroke-miterlimit="10" stroke-dasharray="3"/></g><g transform="translate(-62,-6) scale(1,1)"><rect fill="#C0C0C0" stroke="none" x="655" y="47" width="103.5380859375" height="39" opacity="0.2"/></g><g transform="translate(-62,-6) scale(1,1)"><rect fill="#ffffff" stroke="none" x="648" y="40" width="103.5380859375" height="39"/></g><g transform="translate(-62,-6) scale(1,1)"><path fill="none" stroke="#000000" d="M 648 40 L 751.5380859375 40 L 751.5380859375 79 L 648 79 L 648 40 Z Z" stroke-miterlimit="10"/></g><g transform="translate(-62,-6) scale(1,1)"><g><path fill="none" stroke="none"/><text fill="#000000" stroke="none" font-family="Arial" font-size="13px" font-style="normal" font-weight="bold" text-decoration="none" x="659.66455078125" y="59.5">PassengerDB</text></g></g><g transform="translate(-62,-6) scale(1,1)"><path fill="none" stroke="#000000" d="M 700.5 80 L 700.5 354" stroke-miterlimit="10" stroke-dasharray="3"/></g><g transform="translate(-62,-6) scale(1,1)"><path fill="none" stroke="#000000" d="M 156 160 L 333 160" stroke-miterlimit="10"/></g><g transform="translate(-62,-6) scale(1,1)"><path fill="#000000" stroke="none" d="M 322.83732514237585 164.209517756016 L 333 160 L 322.83732514237585 155.790482243984"/></g><g transform="translate(-62,-6) scale(1,1)"><path fill="none" stroke="#000000" d="M 322.83732514237585 164.209517756016 L 333 160 L 322.83732514237585 155.790482243984 L 322.83732514237585 164.209517756016" stroke-miterlimit="10"/></g><g transform="translate(-62,-6) scale(1,1)"><g><path fill="none" stroke="none"/><text fill="#000000" stroke="none" font-family="Arial" font-size="13px" font-style="normal" font-weight="normal" text-decoration="none" x="216.779541015625" y="156.5">1 : logout</text></g></g><g transform="translate(-62,-6) scale(1,1)"><rect fill="#ffffff" stroke="none" x="333" y="160" width="13" height="28"/></g><g transform="translate(-62,-6) scale(1,1)"><path fill="none" stroke="#000000" d="M 333 160 L 346 160 L 346 188 L 333 188 L 333 160 Z Z" stroke-miterlimit="10"/></g><g transform="translate(-62,-6) scale(1,1)"><path fill="none" stroke="#000000" d="M 340 216 L 480 216" stroke-miterlimit="10" stroke-dasharray="3"/></g><g transform="translate(-62,-6) scale(1,1)"><path fill="none" stroke="#000000" d="M 469.83732514237585 220.209517756016 L 480 216 L 469.83732514237585 211.790482243984" stroke-miterlimit="10"/></g><g transform="translate(-62,-6) scale(1,1)"><g><path fill="none" stroke="none"/><text fill="#000000" stroke="none" font-family="Arial" font-size="13px" font-style="normal" font-weight="normal" text-decoration="none" x="400.5" y="212.5">2 : </text></g></g><g transform="translate(-62,-6) scale(1,1)"><g><path fill="none" stroke="none"/><text fill="#000000" stroke="none" font-family="Arial" font-size="13px" font-style="normal" font-weight="normal" text-decoration="none" x="384.5" y="197.5">«create»</text></g></g><g transform="translate(-62,-6) scale(1,1)"><path fill="none" stroke="#000000" d="M 340 264 L 537 264" stroke-miterlimit="10"/></g><g transform="translate(-62,-6) scale(1,1)"><path fill="#000000" stroke="none" d="M 526.8373251423759 268.209517756016 L 537 264 L 526.8373251423758 259.790482243984"/></g><g transform="translate(-62,-6) scale(1,1)"><path fill="none" stroke="#000000" d="M 526.8373251423759 268.209517756016 L 537 264 L 526.8373251423758 259.790482243984 L 526.8373251423759 268.209517756016" stroke-miterlimit="10"/></g><g transform="translate(-62,-6) scale(1,1)"><g><path fill="none" stroke="none"/><text fill="#000000" stroke="none" font-family="Arial" font-size="13px" font-style="normal" font-weight="normal" text-decoration="none" x="387.5" y="260.5">3 : logout(userID)</text></g></g><g transform="translate(-62,-6) scale(1,1)"><rect fill="#ffffff" stroke="none" x="537" y="264" width="13" height="28"/></g><g transform="translate(-62,-6) scale(1,1)"><path fill="none" stroke="#000000" d="M 537 264 L 550 264 L 550 292 L 537 292 L 537 264 Z Z" stroke-miterlimit="10"/></g><g transform="translate(-62,-6) scale(1,1)"><path fill="none" stroke="#000000" d="M 544 312 L 693 312" stroke-miterlimit="10"/></g><g transform="translate(-62,-6) scale(1,1)"><path fill="#000000" stroke="none" d="M 682.8373251423759 316.209517756016 L 693 312 L 682.8373251423758 307.790482243984"/></g><g transform="translate(-62,-6) scale(1,1)"><path fill="none" stroke="#000000" d="M 682.8373251423759 316.209517756016 L 693 312 L 682.8373251423758 307.790482243984 L 682.8373251423759 316.209517756016" stroke-miterlimit="10"/></g><g transform="translate(-62,-6) scale(1,1)"><g><path fill="none" stroke="none"/><text fill="#000000" stroke="none" font-family="Arial" font-size="13px" font-style="normal" font-weight="normal" text-decoration="none" x="538.5" y="308.5">4 : saveState(userID, state)</text></g></g><g transform="translate(-62,-6) scale(1,1)"><rect fill="#ffffff" stroke="none" x="693" y="312" width="13" height="28"/></g><g transform="translate(-62,-6) scale(1,1)"><path fill="none" stroke="#000000" d="M 693 312 L 706 312 L 706 340 L 693 340 L 693 312 Z Z" stroke-miterlimit="10"/></g><g transform="translate(-62,-6) scale(1,1)"><path fill="none" stroke="#000000" d="M 544 352 L 346 352" stroke-miterlimit="10"/></g><g transform="translate(-62,-6) scale(1,1)"><path fill="#000000" stroke="none" d="M 356.16267485762415 347.790482243984 L 346 352 L 356.16267485762415 356.209517756016"/></g><g transform="translate(-62,-6) scale(1,1)"><path fill="none" stroke="#000000" d="M 356.16267485762415 347.790482243984 L 346 352 L 356.16267485762415 356.209517756016 L 356.16267485762415 347.790482243984" stroke-miterlimit="10"/></g><g transform="translate(-62,-6) scale(1,1)"><g><path fill="none" stroke="none"/><text fill="#000000" stroke="none" font-family="Arial" font-size="13px" font-style="normal" font-weight="normal" text-decoration="none" x="396.5" y="368.5">5 : terminateApp</text></g></g><g transform="translate(-62,-6) scale(1,1)"><rect fill="#ffffff" stroke="none" x="333" y="352" width="13" height="28"/></g><g transform="translate(-62,-6) scale(1,1)"><path fill="none" stroke="#000000" d="M 333 352 L 346 352 L 346 380 L 333 380 L 333 352 Z Z" stroke-miterlimit="10"/></g></g></svg>