<svg version="1.1" xmlns="http://www.w3.org/2000/svg" xmlns:xlink="http://www.w3.org/1999/xlink" width="780" height="860"><defs/><g><g transform="translate(-110,-126) scale(1,1)"><rect fill="#C0C0C0" stroke="none" x="127" y="583" width="160" height="136" opacity="0.2"/></g><g transform="translate(-110,-126) scale(1,1)"><rect fill="#ffffff" stroke="none" x="120" y="576" width="160" height="136"/></g><g transform="translate(-110,-126) scale(1,1)"><path fill="none" stroke="#000000" d="M 120 576 L 280 576 L 280 712 L 120 712 L 120 576 Z Z" stroke-miterlimit="10"/></g><g transform="translate(-110,-126) scale(1,1)"><path fill="none" stroke="#000000" d="M 120 601 L 280 601" stroke-miterlimit="10"/></g><g transform="translate(-110,-126) scale(1,1)"><path fill="none" stroke="#000000" d="M 120 611 L 280 611" stroke-miterlimit="10"/></g><g transform="translate(-110,-126) scale(1,1)"><g><path fill="none" stroke="none"/><text fill="#000000" stroke="none" font-family="Arial" font-size="13px" font-style="normal" font-weight="bold" text-decoration="none" x="168.925048828125" y="595.5">Passenger</text></g></g><g transform="translate(-110,-126) scale(1,1)"><rect fill="#C0C0C0" stroke="none" x="743" y="399" width="136" height="144" opacity="0.2"/></g><g transform="translate(-110,-126) scale(1,1)"><rect fill="#ffffff" stroke="none" x="736" y="392" width="136" height="144"/></g><g transform="translate(-110,-126) scale(1,1)"><path fill="none" stroke="#000000" d="M 736 392 L 872 392 L 872 536 L 736 536 L 736 392 Z Z" stroke-miterlimit="10"/></g><g transform="translate(-110,-126) scale(1,1)"><path fill="none" stroke="#000000" d="M 736 417 L 872 417" stroke-miterlimit="10"/></g><g transform="translate(-110,-126) scale(1,1)"><path fill="none" stroke="#000000" d="M 736 470 L 872 470" stroke-miterlimit="10"/></g><g transform="translate(-110,-126) scale(1,1)"><g><path fill="none" stroke="none"/><text fill="#000000" stroke="none" font-family="Arial" font-size="13px" font-style="normal" font-weight="bold" text-decoration="none" x="792.799560546875" y="411.5">Bus</text></g></g><g transform="translate(-110,-126) scale(1,1)"><g><path fill="none" stroke="none"/><text fill="#000000" stroke="none" font-family="Arial" font-size="13px" font-style="normal" font-weight="normal" text-decoration="none" x="741" y="434.5">+fleetNumber</text></g></g><g transform="translate(-110,-126) scale(1,1)"><g><path fill="none" stroke="none"/><text fill="#000000" stroke="none" font-family="Arial" font-size="13px" font-style="normal" font-weight="normal" text-decoration="none" x="741" y="449.5">+capacity</text></g></g><g transform="translate(-110,-126) scale(1,1)"><g><path fill="none" stroke="none"/><text fill="#000000" stroke="none" font-family="Arial" font-size="13px" font-style="normal" font-weight="normal" text-decoration="none" x="741" y="464.5">+occupancy</text></g></g><g transform="translate(-110,-126) scale(1,1)"><rect fill="#C0C0C0" stroke="none" x="743" y="575" width="144" height="152" opacity="0.2"/></g><g transform="translate(-110,-126) scale(1,1)"><rect fill="#ffffff" stroke="none" x="736" y="568" width="144" height="152"/></g><g transform="translate(-110,-126) scale(1,1)"><path fill="none" stroke="#000000" d="M 736 568 L 880 568 L 880 720 L 736 720 L 736 568 Z Z" stroke-miterlimit="10"/></g><g transform="translate(-110,-126) scale(1,1)"><path fill="none" stroke="#000000" d="M 736 593 L 880 593" stroke-miterlimit="10"/></g><g transform="translate(-110,-126) scale(1,1)"><path fill="none" stroke="#000000" d="M 736 616 L 880 616" stroke-miterlimit="10"/></g><g transform="translate(-110,-126) scale(1,1)"><g><path fill="none" stroke="none"/><text fill="#000000" stroke="none" font-family="Arial" font-size="13px" font-style="normal" font-weight="bold" text-decoration="none" x="790.655029296875" y="587.5">Route</text></g></g><g transform="translate(-110,-126) scale(1,1)"><g><path fill="none" stroke="none"/><text fill="#000000" stroke="none" font-family="Arial" font-size="13px" font-style="normal" font-weight="normal" text-decoration="none" x="741" y="610.5">+routeNumber</text></g></g><g transform="translate(-110,-126) scale(1,1)"><rect fill="#C0C0C0" stroke="none" x="743" y="831" width="144" height="144" opacity="0.2"/></g><g transform="translate(-110,-126) scale(1,1)"><rect fill="#ffffff" stroke="none" x="736" y="824" width="144" height="144"/></g><g transform="translate(-110,-126) scale(1,1)"><path fill="none" stroke="#000000" d="M 736 824 L 880 824 L 880 968 L 736 968 L 736 824 Z Z" stroke-miterlimit="10"/></g><g transform="translate(-110,-126) scale(1,1)"><path fill="none" stroke="#000000" d="M 736 849 L 880 849" stroke-miterlimit="10"/></g><g transform="translate(-110,-126) scale(1,1)"><path fill="none" stroke="#000000" d="M 736 887 L 880 887" stroke-miterlimit="10"/></g><g transform="translate(-110,-126) scale(1,1)"><g><path fill="none" stroke="none"/><text fill="#000000" stroke="none" font-family="Arial" font-size="13px" font-style="normal" font-weight="bold" text-decoration="none" x="794.628662109375" y="843.5">Stop</text></g></g><g transform="translate(-110,-126) scale(1,1)"><g><path fill="none" stroke="none"/><text fill="#000000" stroke="none" font-family="Arial" font-size="13px" font-style="normal" font-weight="normal" text-decoration="none" x="741" y="866.5">+stopName</text></g></g><g transform="translate(-110,-126) scale(1,1)"><g><path fill="none" stroke="none"/><text fill="#000000" stroke="none" font-family="Arial" font-size="13px" font-style="normal" font-weight="normal" text-decoration="none" x="741" y="881.5">+address</text></g></g><g transform="translate(-110,-126) scale(1,1)"><rect fill="#C0C0C0" stroke="none" x="471" y="559" width="170.919921875" height="176" opacity="0.2"/></g><g transform="translate(-110,-126) scale(1,1)"><rect fill="#ffffff" stroke="none" x="464" y="552" width="170.919921875" height="176"/></g><g transform="translate(-110,-126) scale(1,1)"><path fill="none" stroke="#000000" d="M 464 552 L 634.919921875 552 L 634.919921875 728 L 464 728 L 464 552 Z Z" stroke-miterlimit="10"/></g><g transform="translate(-110,-126) scale(1,1)"><path fill="none" stroke="#000000" d="M 464 577 L 634.919921875 577" stroke-miterlimit="10"/></g><g transform="translate(-110,-126) scale(1,1)"><path fill="none" stroke="#000000" d="M 464 690 L 634.919921875 690" stroke-miterlimit="10"/></g><g transform="translate(-110,-126) scale(1,1)"><g><path fill="none" stroke="none"/><text fill="#000000" stroke="none" font-family="Arial" font-size="13px" font-style="normal" font-weight="bold" text-decoration="none" x="536.45361328125" y="571.5">Post</text></g></g><g transform="translate(-110,-126) scale(1,1)"><g><path fill="none" stroke="none"/><text fill="#000000" stroke="none" font-family="Arial" font-size="13px" font-style="normal" font-weight="normal" text-decoration="none" x="469" y="594.5">+postID</text></g></g><g transform="translate(-110,-126) scale(1,1)"><g><path fill="none" stroke="none"/><text fill="#000000" stroke="none" font-family="Arial" font-size="13px" font-style="normal" font-weight="normal" text-decoration="none" x="469" y="609.5">+owner</text></g></g><g transform="translate(-110,-126) scale(1,1)"><g><path fill="none" stroke="none"/><text fill="#000000" stroke="none" font-family="Arial" font-size="13px" font-style="normal" font-weight="normal" text-decoration="none" x="469" y="624.5">+timestamp</text></g></g><g transform="translate(-110,-126) scale(1,1)"><g><path fill="none" stroke="none"/><text fill="#000000" stroke="none" font-family="Arial" font-size="13px" font-style="normal" font-weight="normal" text-decoration="none" x="469" y="639.5">+route</text></g></g><g transform="translate(-110,-126) scale(1,1)"><g><path fill="none" stroke="none"/><text fill="#000000" stroke="none" font-family="Arial" font-size="13px" font-style="normal" font-weight="normal" text-decoration="none" x="469" y="654.5">+bus</text></g></g><g transform="translate(-110,-126) scale(1,1)"><g><path fill="none" stroke="none"/><text fill="#000000" stroke="none" font-family="Arial" font-size="13px" font-style="normal" font-weight="normal" text-decoration="none" x="469" y="669.5">+stop</text></g></g><g transform="translate(-110,-126) scale(1,1)"><g><path fill="none" stroke="none"/><text fill="#000000" stroke="none" font-family="Arial" font-size="13px" font-style="normal" font-weight="normal" text-decoration="none" x="469" y="684.5">+status</text></g></g><g transform="translate(-110,-126) scale(1,1)"><rect fill="#C0C0C0" stroke="none" x="471" y="311" width="176" height="128" opacity="0.2"/></g><g transform="translate(-110,-126) scale(1,1)"><rect fill="#ffffff" stroke="none" x="464" y="304" width="176" height="128"/></g><g transform="translate(-110,-126) scale(1,1)"><path fill="none" stroke="#000000" d="M 464 304 L 640 304 L 640 432 L 464 432 L 464 304 Z Z" stroke-miterlimit="10"/></g><g transform="translate(-110,-126) scale(1,1)"><path fill="none" stroke="#000000" d="M 464 329 L 640 329" stroke-miterlimit="10"/></g><g transform="translate(-110,-126) scale(1,1)"><path fill="none" stroke="#000000" d="M 464 352 L 640 352" stroke-miterlimit="10"/></g><g transform="translate(-110,-126) scale(1,1)"><g><path fill="none" stroke="none"/><text fill="#000000" stroke="none" font-family="Arial" font-size="13px" font-style="normal" font-weight="bold" text-decoration="none" x="516.951416015625" y="323.5">Noticeboard</text></g></g><g transform="translate(-110,-126) scale(1,1)"><g><path fill="none" stroke="none"/><text fill="#000000" stroke="none" font-family="Arial" font-size="13px" font-style="normal" font-weight="normal" text-decoration="none" x="469" y="346.5">+posts[1..*]</text></g></g><g transform="translate(-110,-126) scale(1,1)"><g><path fill="none" stroke="none"/><text fill="#000000" stroke="none" font-family="Arial" font-size="13px" font-style="normal" font-weight="normal" text-decoration="none" x="469" y="369.5">+estimate()</text></g></g><g transform="translate(-110,-126) scale(1,1)"><path fill="none" stroke="#000000" d="M 281 643 L 463 641" stroke-miterlimit="10"/></g><g transform="translate(-110,-126) scale(1,1)"><path fill="none" stroke="#000000" d="M 550 551 L 551 433" stroke-miterlimit="10"/></g><g transform="translate(-110,-126) scale(1,1)"><path fill="#FFFFFF" stroke="none" d="M 555.1232453329442 443.1979825418734 L 551 433 L 546.7045121256399 443.1266373452013 L 550.8135660166129 454.9992100396773"/></g><g transform="translate(-110,-126) scale(1,1)"><path fill="none" stroke="#000000" d="M 555.1232453329442 443.1979825418734 L 551 433 L 546.7045121256399 443.1266373452013 L 550.8135660166129 454.9992100396773 L 555.1232453329442 443.1979825418734" stroke-miterlimit="10"/></g><g transform="translate(-110,-126) scale(1,1)"><path fill="none" stroke="#000000" d="M 808 823 L 808 721" stroke-miterlimit="10"/></g><g transform="translate(-110,-126) scale(1,1)"><path fill="#FFFFFF" stroke="none" d="M 812.209517756016 731.1626748576241 L 808 721 L 803.790482243984 731.1626748576241 L 808 743"/></g><g transform="translate(-110,-126) scale(1,1)"><path fill="none" stroke="#000000" d="M 812.209517756016 731.1626748576241 L 808 721 L 803.790482243984 731.1626748576241 L 808 743 L 812.209517756016 731.1626748576241" stroke-miterlimit="10"/></g><g transform="translate(-110,-126) scale(1,1)"><rect fill="#C0C0C0" stroke="none" x="471" y="831" width="176" height="151" opacity="0.2"/></g><g transform="translate(-110,-126) scale(1,1)"><rect fill="#ffffff" stroke="none" x="464" y="824" width="176" height="151"/></g><g transform="translate(-110,-126) scale(1,1)"><path fill="none" stroke="#000000" d="M 464 824 L 640 824 L 640 975 L 464 975 L 464 824 Z Z" stroke-miterlimit="10"/></g><g transform="translate(-110,-126) scale(1,1)"><path fill="none" stroke="#000000" d="M 464 849 L 640 849" stroke-miterlimit="10"/></g><g transform="translate(-110,-126) scale(1,1)"><path fill="none" stroke="#000000" d="M 464 859 L 640 859" stroke-miterlimit="10"/></g><g transform="translate(-110,-126) scale(1,1)"><g><path fill="none" stroke="none"/><text fill="#000000" stroke="none" font-family="Arial" font-size="13px" font-style="normal" font-weight="bold" text-decoration="none" x="533.57275390625" y="843.5">Status</text></g></g><g transform="translate(-110,-126) scale(1,1)"><path fill="none" stroke="#000000" d="M 551 823 L 550 729" stroke-miterlimit="10"/></g><g transform="translate(-110,-126) scale(1,1)"><path fill="#000000" stroke="none" d="M 554.3173870185987 739.1173202643603 L 550 729 L 545.8988278714927 739.2068794042232 L 550.234029310622 750.99875519846"/></g><g transform="translate(-110,-126) scale(1,1)"><path fill="none" stroke="#000000" d="M 554.3173870185987 739.1173202643603 L 550 729 L 545.8988278714927 739.2068794042232 L 550.234029310622 750.99875519846 L 554.3173870185987 739.1173202643603" stroke-miterlimit="10"/></g><g transform="translate(-110,-126) scale(1,1)"><rect fill="#C0C0C0" stroke="none" x="135" y="143" width="152" height="120" opacity="0.2"/></g><g transform="translate(-110,-126) scale(1,1)"><rect fill="#ffffff" stroke="none" x="128" y="136" width="152" height="120"/></g><g transform="translate(-110,-126) scale(1,1)"><path fill="none" stroke="#000000" d="M 128 136 L 280 136 L 280 256 L 128 256 L 128 136 Z Z" stroke-miterlimit="10"/></g><g transform="translate(-110,-126) scale(1,1)"><path fill="none" stroke="#000000" d="M 128 161 L 280 161" stroke-miterlimit="10"/></g><g transform="translate(-110,-126) scale(1,1)"><path fill="none" stroke="#000000" d="M 128 199 L 280 199" stroke-miterlimit="10"/></g><g transform="translate(-110,-126) scale(1,1)"><g><path fill="none" stroke="none"/><text fill="#000000" stroke="none" font-family="Arial" font-size="13px" font-style="normal" font-weight="bold" text-decoration="none" x="190.2763671875" y="155.5">User</text></g></g><g transform="translate(-110,-126) scale(1,1)"><g><path fill="none" stroke="none"/><text fill="#000000" stroke="none" font-family="Arial" font-size="13px" font-style="normal" font-weight="normal" text-decoration="none" x="133" y="178.5">+name</text></g></g><g transform="translate(-110,-126) scale(1,1)"><g><path fill="none" stroke="none"/><text fill="#000000" stroke="none" font-family="Arial" font-size="13px" font-style="normal" font-weight="normal" text-decoration="none" x="133" y="193.5">+userID</text></g></g><g transform="translate(-110,-126) scale(1,1)"><g><path fill="none" stroke="none"/><text fill="#000000" stroke="none" font-family="Arial" font-size="13px" font-style="normal" font-weight="normal" text-decoration="none" x="133" y="216.5">+MakePost()</text></g></g><g transform="translate(-110,-126) scale(1,1)"><rect fill="#C0C0C0" stroke="none" x="471" y="143" width="176" height="120" opacity="0.2"/></g><g transform="translate(-110,-126) scale(1,1)"><rect fill="#ffffff" stroke="none" x="464" y="136" width="176" height="120"/></g><g transform="translate(-110,-126) scale(1,1)"><path fill="none" stroke="#000000" d="M 464 136 L 640 136 L 640 256 L 464 256 L 464 136 Z Z" stroke-miterlimit="10"/></g><g transform="translate(-110,-126) scale(1,1)"><path fill="none" stroke="#000000" d="M 464 161 L 640 161" stroke-miterlimit="10"/></g><g transform="translate(-110,-126) scale(1,1)"><path fill="none" stroke="#000000" d="M 464 171 L 640 171" stroke-miterlimit="10"/></g><g transform="translate(-110,-126) scale(1,1)"><g><path fill="none" stroke="none"/><text fill="#000000" stroke="none" font-family="Arial" font-size="13px" font-style="normal" font-weight="bold" text-decoration="none" x="513.7109375" y="155.5">Administrator</text></g></g><g transform="translate(-110,-126) scale(1,1)"><path fill="none" stroke="#000000" d="M 463 196 L 281 196" stroke-miterlimit="10"/></g><g transform="translate(-110,-126) scale(1,1)"><path fill="#FFFFFF" stroke="none" d="M 301.3253497152483 187.58096448796803 L 281 196 L 301.3253497152483 204.41903551203197"/></g><g transform="translate(-110,-126) scale(1,1)"><path fill="none" stroke="#000000" d="M 301.3253497152483 187.58096448796803 L 281 196 L 301.3253497152483 204.41903551203197 L 301.3253497152483 187.58096448796803" stroke-miterlimit="10"/></g><g transform="translate(-110,-126) scale(1,1)"><path fill="none" stroke="#000000" d="M 201 575 L 203 257" stroke-miterlimit="10"/></g><g transform="translate(-110,-126) scale(1,1)"><path fill="#FFFFFF" stroke="none" d="M 211.29103914783337 277.377896600216 L 203 257 L 194.4533011321851 277.27199887684714"/></g><g transform="translate(-110,-126) scale(1,1)"><path fill="none" stroke="#000000" d="M 211.29103914783337 277.377896600216 L 203 257 L 194.4533011321851 277.27199887684714 L 211.29103914783337 277.377896600216" stroke-miterlimit="10"/></g><g transform="translate(-110,-126) scale(1,1)"><path fill="none" stroke="#000000" d="M 552 257 L 552 303" stroke-miterlimit="10"/></g><g transform="translate(-110,-126) scale(1,1)"><rect fill="#C0C0C0" stroke="none" x="127" y="831" width="160" height="152" opacity="0.2"/></g><g transform="translate(-110,-126) scale(1,1)"><rect fill="#ffffff" stroke="none" x="120" y="824" width="160" height="152"/></g><g transform="translate(-110,-126) scale(1,1)"><path fill="none" stroke="#000000" d="M 120 824 L 280 824 L 280 976 L 120 976 L 120 824 Z Z" stroke-miterlimit="10"/></g><g transform="translate(-110,-126) scale(1,1)"><path fill="none" stroke="#000000" d="M 120 849 L 280 849" stroke-miterlimit="10"/></g><g transform="translate(-110,-126) scale(1,1)"><path fill="none" stroke="#000000" d="M 120 872 L 280 872" stroke-miterlimit="10"/></g><g transform="translate(-110,-126) scale(1,1)"><g><path fill="none" stroke="none"/><text fill="#000000" stroke="none" font-family="Arial" font-size="13px" font-style="normal" font-weight="bold" text-decoration="none" x="177.602294921875" y="843.5">Reward</text></g></g><g transform="translate(-110,-126) scale(1,1)"><g><path fill="none" stroke="none"/><text fill="#000000" stroke="none" font-family="Arial" font-size="13px" font-style="normal" font-weight="normal" text-decoration="none" x="125" y="866.5">+rewardType</text></g></g><g transform="translate(-110,-126) scale(1,1)"><g><path fill="none" stroke="none"/><text fill="#000000" stroke="none" font-family="Arial" font-size="13px" font-style="normal" font-weight="normal" text-decoration="none" x="125" y="889.5">+claim()</text></g></g><g transform="translate(-110,-126) scale(1,1)"><g><path fill="none" stroke="none"/><text fill="#000000" stroke="none" font-family="Arial" font-size="13px" font-style="normal" font-weight="normal" text-decoration="none" x="125" y="904.5">-claimable()</text></g></g><g transform="translate(-110,-126) scale(1,1)"><path fill="none" stroke="#000000" d="M 200 823 L 200 713" stroke-miterlimit="10"/></g><g transform="translate(-110,-126) scale(1,1)"><path fill="#FFFFFF" stroke="none" d="M 204.209517756016 723.1626748576241 L 200 713 L 195.790482243984 723.1626748576241 L 200 735"/></g><g transform="translate(-110,-126) scale(1,1)"><path fill="none" stroke="#000000" d="M 204.209517756016 723.1626748576241 L 200 713 L 195.790482243984 723.1626748576241 L 200 735 L 204.209517756016 723.1626748576241" stroke-miterlimit="10"/></g><g transform="translate(-110,-126) scale(1,1)"><path fill="none" stroke="#000000" d="M 806 537 L 806 567" stroke-miterlimit="10"/></g><g transform="translate(-110,-126) scale(1,1)"><path fill="none" stroke="#000000" d="M 735 512 L 636 580" stroke-miterlimit="10"/></g><g transform="translate(-110,-126) scale(1,1)"><path fill="none" stroke="#000000" d="M 735 643 L 636 641" stroke-miterlimit="10"/></g><g transform="translate(-110,-126) scale(1,1)"><path fill="none" stroke="#000000" d="M 735 824 L 636 726" stroke-miterlimit="10"/></g></g></svg>