<svg version="1.1" xmlns="http://www.w3.org/2000/svg" xmlns:xlink="http://www.w3.org/1999/xlink" width="812.41357421875" height="442"><defs/><g><g transform="translate(-70,-30) scale(1,1)"><rect fill="#C0C0C0" stroke="none" x="143" y="47" width="84.76171875" height="39" opacity="0.2"/></g><g transform="translate(-70,-30) scale(1,1)"><rect fill="#ffffff" stroke="none" x="136" y="40" width="84.76171875" height="39"/></g><g transform="translate(-70,-30) scale(1,1)"><path fill="none" stroke="#000000" d="M 136 40 L 220.76171875 40 L 220.76171875 79 L 136 79 L 136 40 Z Z" stroke-miterlimit="10"/></g><g transform="translate(-70,-30) scale(1,1)"><g><path fill="none" stroke="none"/><text fill="#000000" stroke="none" font-family="Arial" font-size="13px" font-style="normal" font-weight="bold" text-decoration="none" x="164.6572265625" y="59.5">User</text></g></g><g transform="translate(-70,-30) scale(1,1)"><path fill="none" stroke="#000000" d="M 179.5 80 L 179.5 239" stroke-miterlimit="10" stroke-dasharray="3"/></g><g transform="translate(-70,-30) scale(1,1)"><rect fill="#C0C0C0" stroke="none" x="335" y="47" width="71.736328125" height="39" opacity="0.2"/></g><g transform="translate(-70,-30) scale(1,1)"><rect fill="#ffffff" stroke="none" x="328" y="40" width="71.736328125" height="39"/></g><g transform="translate(-70,-30) scale(1,1)"><path fill="none" stroke="#000000" d="M 328 40 L 399.736328125 40 L 399.736328125 79 L 328 79 L 328 40 Z Z" stroke-miterlimit="10"/></g><g transform="translate(-70,-30) scale(1,1)"><g><path fill="none" stroke="none"/><text fill="#000000" stroke="none" font-family="Arial" font-size="13px" font-style="normal" font-weight="bold" text-decoration="none" x="341.464111328125" y="59.5">LoginUI</text></g></g><g transform="translate(-70,-30) scale(1,1)"><path fill="none" stroke="#000000" d="M 364.5 80 L 364.5 451" stroke-miterlimit="10" stroke-dasharray="3"/></g><g transform="translate(-70,-30) scale(1,1)"><rect fill="#C0C0C0" stroke="none" x="527" y="123" width="124.42822265625" height="39" opacity="0.2"/></g><g transform="translate(-70,-30) scale(1,1)"><rect fill="#ffffff" stroke="none" x="520" y="116" width="124.42822265625" height="39"/></g><g transform="translate(-70,-30) scale(1,1)"><path fill="none" stroke="#000000" d="M 520 116 L 644.42822265625 116 L 644.42822265625 155 L 520 155 L 520 116 Z Z" stroke-miterlimit="10"/></g><g transform="translate(-70,-30) scale(1,1)"><g><path fill="none" stroke="none"/><text fill="#000000" stroke="none" font-family="Arial" font-size="13px" font-style="normal" font-weight="bold" text-decoration="none" x="534.517822265625" y="135.5">LoginCountroller</text></g></g><g transform="translate(-70,-30) scale(1,1)"><path fill="none" stroke="#000000" d="M 583.5 156 L 583.5 451" stroke-miterlimit="10" stroke-dasharray="3"/></g><g transform="translate(-70,-30) scale(1,1)"><rect fill="#C0C0C0" stroke="none" x="759" y="47" width="120.41357421875" height="39" opacity="0.2"/></g><g transform="translate(-70,-30) scale(1,1)"><rect fill="#ffffff" stroke="none" x="752" y="40" width="120.41357421875" height="39"/></g><g transform="translate(-70,-30) scale(1,1)"><path fill="none" stroke="#000000" d="M 752 40 L 872.41357421875 40 L 872.41357421875 79 L 752 79 L 752 40 Z Z" stroke-miterlimit="10"/></g><g transform="translate(-70,-30) scale(1,1)"><g><path fill="none" stroke="none"/><text fill="#000000" stroke="none" font-family="Arial" font-size="13px" font-style="normal" font-weight="bold" text-decoration="none" x="789.45361328125" y="59.5">UserDB</text></g></g><g transform="translate(-70,-30) scale(1,1)"><path fill="none" stroke="#000000" d="M 813.5 80 L 813.5 370" stroke-miterlimit="10" stroke-dasharray="3"/></g><g transform="translate(-70,-30) scale(1,1)"><path fill="none" stroke="#000000" d="M 80 288 L 863 288 L 863 462 L 80 462 L 80 288" stroke-miterlimit="10"/></g><g transform="translate(-70,-30) scale(1,1)"><path fill="#ffffff" stroke="none" d="M 80 288 L 80 310 L 198.63525390625 310 L 209.63525390625 299 L 209.63525390625 288 L 80 288"/></g><g transform="translate(-70,-30) scale(1,1)"><path fill="none" stroke="#000000" d="M 80 288 L 80 310 L 198.63525390625 310 L 209.63525390625 299 L 209.63525390625 288 L 80 288 L 80 288" stroke-miterlimit="10"/></g><g transform="translate(-70,-30) scale(1,1)"><g><path fill="none" stroke="none"/><text fill="#000000" stroke="none" font-family="Arial" font-size="13px" font-style="normal" font-weight="normal" text-decoration="none" x="109.07177734375" y="305.5">loginValidation</text></g></g><g transform="translate(-70,-30) scale(1,1)"><g><path fill="none" stroke="none"/><text fill="#000000" stroke="none" font-family="Arial" font-size="13px" font-style="normal" font-weight="bold" text-decoration="none" x="85" y="305.5">opt</text></g></g><g transform="translate(-70,-30) scale(1,1)"><g><path fill="none" stroke="none"/><text fill="#000000" stroke="none" font-family="Arial" font-size="13px" font-style="normal" font-weight="normal" text-decoration="none" x="99.5" y="338.5">[if valid password]</text></g></g><g transform="translate(-70,-30) scale(1,1)"><path fill="none" stroke="#000000" d="M 80 385 L 863 385" stroke-miterlimit="10" stroke-dasharray="10,3"/></g><g transform="translate(-70,-30) scale(1,1)"><g><path fill="none" stroke="none"/><text fill="#000000" stroke="none" font-family="Arial" font-size="13px" font-style="normal" font-weight="normal" text-decoration="none" x="99.5" y="412.5">[if invalid password]</text></g></g><g transform="translate(-70,-30) scale(1,1)"><path fill="none" stroke="#000000" d="M 179 120 L 357 120" stroke-miterlimit="10"/></g><g transform="translate(-70,-30) scale(1,1)"><path fill="none" stroke="#000000" d="M 346.83732514237585 124.20951775601598 L 357 120 L 346.83732514237585 115.79048224398402" stroke-miterlimit="10"/></g><g transform="translate(-70,-30) scale(1,1)"><g><path fill="none" stroke="none"/><text fill="#000000" stroke="none" font-family="Arial" font-size="13px" font-style="normal" font-weight="normal" text-decoration="none" x="182.5" y="116.5">1 : login(accountID,password)</text></g></g><g transform="translate(-70,-30) scale(1,1)"><rect fill="#ffffff" stroke="none" x="357" y="120" width="13" height="28"/></g><g transform="translate(-70,-30) scale(1,1)"><path fill="none" stroke="#000000" d="M 357 120 L 370 120 L 370 148 L 357 148 L 357 120 Z Z" stroke-miterlimit="10"/></g><g transform="translate(-70,-30) scale(1,1)"><path fill="none" stroke="#000000" d="M 370 136 L 520 136" stroke-miterlimit="10" stroke-dasharray="3"/></g><g transform="translate(-70,-30) scale(1,1)"><path fill="none" stroke="#000000" d="M 509.83732514237585 140.209517756016 L 520 136 L 509.83732514237585 131.790482243984" stroke-miterlimit="10"/></g><g transform="translate(-70,-30) scale(1,1)"><g><path fill="none" stroke="none"/><text fill="#000000" stroke="none" font-family="Arial" font-size="13px" font-style="normal" font-weight="normal" text-decoration="none" x="435.5" y="132.5">2 : </text></g></g><g transform="translate(-70,-30) scale(1,1)"><g><path fill="none" stroke="none"/><text fill="#000000" stroke="none" font-family="Arial" font-size="13px" font-style="normal" font-weight="normal" text-decoration="none" x="419.5" y="117.5">«create»</text></g></g><g transform="translate(-70,-30) scale(1,1)"><path fill="none" stroke="#000000" d="M 364 175 L 576 175" stroke-miterlimit="10"/></g><g transform="translate(-70,-30) scale(1,1)"><path fill="#000000" stroke="none" d="M 565.8373251423759 179.209517756016 L 576 175 L 565.8373251423758 170.790482243984"/></g><g transform="translate(-70,-30) scale(1,1)"><path fill="none" stroke="#000000" d="M 565.8373251423759 179.209517756016 L 576 175 L 565.8373251423758 170.790482243984 L 565.8373251423759 179.209517756016" stroke-miterlimit="10"/></g><g transform="translate(-70,-30) scale(1,1)"><g><path fill="none" stroke="none"/><text fill="#000000" stroke="none" font-family="Arial" font-size="13px" font-style="normal" font-weight="normal" text-decoration="none" x="375.5" y="171.5">3 : validate(accountID,password)</text></g></g><g transform="translate(-70,-30) scale(1,1)"><rect fill="#ffffff" stroke="none" x="576" y="175" width="13" height="28"/></g><g transform="translate(-70,-30) scale(1,1)"><path fill="none" stroke="#000000" d="M 576 175 L 589 175 L 589 203 L 576 203 L 576 175 Z Z" stroke-miterlimit="10"/></g><g transform="translate(-70,-30) scale(1,1)"><path fill="none" stroke="#000000" d="M 589 184 L 619 184 L 619 204 L 589 204" stroke-miterlimit="10"/></g><g transform="translate(-70,-30) scale(1,1)"><path fill="#000000" stroke="none" d="M 599.1626748576241 199.790482243984 L 589 204 L 599.1626748576241 208.209517756016"/></g><g transform="translate(-70,-30) scale(1,1)"><path fill="none" stroke="#000000" d="M 599.1626748576241 199.790482243984 L 589 204 L 599.1626748576241 208.209517756016 L 599.1626748576241 199.790482243984" stroke-miterlimit="10"/></g><g transform="translate(-70,-30) scale(1,1)"><g><path fill="none" stroke="none"/><text fill="#000000" stroke="none" font-family="Arial" font-size="13px" font-style="normal" font-weight="normal" text-decoration="none" x="622.5" y="199.5">4 : encrypt(password)</text></g></g><g transform="translate(-70,-30) scale(1,1)"><rect fill="#ffffff" stroke="none" x="576" y="204" width="13" height="28"/></g><g transform="translate(-70,-30) scale(1,1)"><path fill="none" stroke="#000000" d="M 576 204 L 589 204 L 589 232 L 576 232 L 576 204 Z Z" stroke-miterlimit="10"/></g><g transform="translate(-70,-30) scale(1,1)"><path fill="none" stroke="#000000" d="M 583 256 L 806 256" stroke-miterlimit="10"/></g><g transform="translate(-70,-30) scale(1,1)"><path fill="#000000" stroke="none" d="M 795.8373251423759 260.209517756016 L 806 256 L 795.8373251423758 251.790482243984"/></g><g transform="translate(-70,-30) scale(1,1)"><path fill="none" stroke="#000000" d="M 795.8373251423759 260.209517756016 L 806 256 L 795.8373251423758 251.790482243984 L 795.8373251423759 260.209517756016" stroke-miterlimit="10"/></g><g transform="translate(-70,-30) scale(1,1)"><g><path fill="none" stroke="none"/><text fill="#000000" stroke="none" font-family="Arial" font-size="13px" font-style="normal" font-weight="normal" text-decoration="none" x="584.5" y="252.5">5 : getEncryptedPassword(accountID)</text></g></g><g transform="translate(-70,-30) scale(1,1)"><rect fill="#ffffff" stroke="none" x="806" y="256" width="13" height="28"/></g><g transform="translate(-70,-30) scale(1,1)"><path fill="none" stroke="#000000" d="M 806 256 L 819 256 L 819 284 L 806 284 L 806 256 Z Z" stroke-miterlimit="10"/></g><g transform="translate(-70,-30) scale(1,1)"><path fill="none" stroke="#000000" d="M 583 328 L 806 328" stroke-miterlimit="10"/></g><g transform="translate(-70,-30) scale(1,1)"><path fill="#000000" stroke="none" d="M 795.8373251423759 332.209517756016 L 806 328 L 795.8373251423758 323.790482243984"/></g><g transform="translate(-70,-30) scale(1,1)"><path fill="none" stroke="#000000" d="M 795.8373251423759 332.209517756016 L 806 328 L 795.8373251423758 323.790482243984 L 795.8373251423759 332.209517756016" stroke-miterlimit="10"/></g><g transform="translate(-70,-30) scale(1,1)"><g><path fill="none" stroke="none"/><text fill="#000000" stroke="none" font-family="Arial" font-size="13px" font-style="normal" font-weight="normal" text-decoration="none" x="648.5" y="324.5">6 : getLastState</text></g></g><g transform="translate(-70,-30) scale(1,1)"><rect fill="#ffffff" stroke="none" x="806" y="328" width="13" height="28"/></g><g transform="translate(-70,-30) scale(1,1)"><path fill="none" stroke="#000000" d="M 806 328 L 819 328 L 819 356 L 806 356 L 806 328 Z Z" stroke-miterlimit="10"/></g><g transform="translate(-70,-30) scale(1,1)"><path fill="none" stroke="#000000" d="M 583 336 L 370 336" stroke-miterlimit="10"/></g><g transform="translate(-70,-30) scale(1,1)"><path fill="#000000" stroke="none" d="M 380.16267485762415 331.790482243984 L 370 336 L 380.16267485762415 340.209517756016"/></g><g transform="translate(-70,-30) scale(1,1)"><path fill="none" stroke="#000000" d="M 380.16267485762415 331.790482243984 L 370 336 L 380.16267485762415 340.209517756016 L 380.16267485762415 331.790482243984" stroke-miterlimit="10"/></g><g transform="translate(-70,-30) scale(1,1)"><g><path fill="none" stroke="none"/><text fill="#000000" stroke="none" font-family="Arial" font-size="13px" font-style="normal" font-weight="normal" text-decoration="none" x="427.5" y="352.5">7 : display(state)</text></g></g><g transform="translate(-70,-30) scale(1,1)"><rect fill="#ffffff" stroke="none" x="357" y="336" width="13" height="28"/></g><g transform="translate(-70,-30) scale(1,1)"><path fill="none" stroke="#000000" d="M 357 336 L 370 336 L 370 364 L 357 364 L 357 336 Z Z" stroke-miterlimit="10"/></g><g transform="translate(-70,-30) scale(1,1)"><path fill="none" stroke="#000000" d="M 583 409 L 370 409" stroke-miterlimit="10"/></g><g transform="translate(-70,-30) scale(1,1)"><path fill="#000000" stroke="none" d="M 380.16267485762415 404.790482243984 L 370 409 L 380.16267485762415 413.209517756016"/></g><g transform="translate(-70,-30) scale(1,1)"><path fill="none" stroke="#000000" d="M 380.16267485762415 404.790482243984 L 370 409 L 380.16267485762415 413.209517756016 L 380.16267485762415 404.790482243984" stroke-miterlimit="10"/></g><g transform="translate(-70,-30) scale(1,1)"><g><path fill="none" stroke="none"/><text fill="#000000" stroke="none" font-family="Arial" font-size="13px" font-style="normal" font-weight="normal" text-decoration="none" x="431.5" y="425.5">8 : invalidLogin</text></g></g><g transform="translate(-70,-30) scale(1,1)"><rect fill="#ffffff" stroke="none" x="357" y="409" width="13" height="28"/></g><g transform="translate(-70,-30) scale(1,1)"><path fill="none" stroke="#000000" d="M 357 409 L 370 409 L 370 437 L 357 437 L 357 409 Z Z" stroke-miterlimit="10"/></g></g></svg>