<svg version="1.1" xmlns="http://www.w3.org/2000/svg" xmlns:xlink="http://www.w3.org/1999/xlink" width="714" height="614"><defs/><g><g transform="translate(-46,10) scale(1,1)"><path fill="none" stroke="#000000" d="M 56 0 L 750 0 L 750 594 L 56 594 L 56 0" stroke-miterlimit="10"/></g><g transform="translate(-46,10) scale(1,1)"><path fill="#ffffff" stroke="none" d="M 56 0 L 56 22 L 189.0634765625 22 L 200.0634765625 11 L 200.0634765625 0 L 56 0"/></g><g transform="translate(-46,10) scale(1,1)"><path fill="none" stroke="#000000" d="M 56 0 L 56 22 L 189.0634765625 22 L 200.0634765625 11 L 200.0634765625 0 L 56 0 L 56 0" stroke-miterlimit="10"/></g><g transform="translate(-46,10) scale(1,1)"><g><path fill="none" stroke="none"/><text fill="#000000" stroke="none" font-family="Arial" font-size="13px" font-style="normal" font-weight="normal" text-decoration="none" x="126.97900390625" y="17.5">GetPoints</text></g></g><g transform="translate(-46,10) scale(1,1)"><g><path fill="none" stroke="none"/><text fill="#000000" stroke="none" font-family="Arial" font-size="13px" font-style="normal" font-weight="bold" text-decoration="none" x="61" y="17.5">interaction</text></g></g><g transform="translate(-46,10) scale(1,1)"><rect fill="#C0C0C0" stroke="none" x="127" y="47" width="84.76171875" height="39" opacity="0.2"/></g><g transform="translate(-46,10) scale(1,1)"><rect fill="#ffffff" stroke="none" x="120" y="40" width="84.76171875" height="39"/></g><g transform="translate(-46,10) scale(1,1)"><path fill="none" stroke="#000000" d="M 120 40 L 204.76171875 40 L 204.76171875 79 L 120 79 L 120 40 Z Z" stroke-miterlimit="10"/></g><g transform="translate(-46,10) scale(1,1)"><g><path fill="none" stroke="none"/><text fill="#000000" stroke="none" font-family="Arial" font-size="13px" font-style="normal" font-weight="bold" text-decoration="none" x="131.305908203125" y="59.5">Passenger</text></g></g><g transform="translate(-46,10) scale(1,1)"><path fill="none" stroke="#000000" d="M 163.5 80 L 163.5 354" stroke-miterlimit="10" stroke-dasharray="3"/></g><g transform="translate(-46,10) scale(1,1)"><rect fill="#C0C0C0" stroke="none" x="319" y="47" width="71.736328125" height="39" opacity="0.2"/></g><g transform="translate(-46,10) scale(1,1)"><rect fill="#ffffff" stroke="none" x="312" y="40" width="71.736328125" height="39"/></g><g transform="translate(-46,10) scale(1,1)"><path fill="none" stroke="#000000" d="M 312 40 L 383.736328125 40 L 383.736328125 79 L 312 79 L 312 40 Z Z" stroke-miterlimit="10"/></g><g transform="translate(-46,10) scale(1,1)"><g><path fill="none" stroke="none"/><text fill="#000000" stroke="none" font-family="Arial" font-size="13px" font-style="normal" font-weight="bold" text-decoration="none" x="328" y="59.5">Device</text></g></g><g transform="translate(-46,10) scale(1,1)"><path fill="none" stroke="#000000" d="M 348.5 80 L 348.5 318" stroke-miterlimit="10" stroke-dasharray="3"/></g><g transform="translate(-46,10) scale(1,1)"><path fill="none" stroke="#000000" d="M 128 192 L 744 192 L 744 424 L 128 424 L 128 192" stroke-miterlimit="10"/></g><g transform="translate(-46,10) scale(1,1)"><path fill="#ffffff" stroke="none" d="M 128 192 L 128 214 L 196.76171875 214 L 207.76171875 203 L 207.76171875 192 L 128 192"/></g><g transform="translate(-46,10) scale(1,1)"><path fill="none" stroke="#000000" d="M 128 192 L 128 214 L 196.76171875 214 L 207.76171875 203 L 207.76171875 192 L 128 192 L 128 192" stroke-miterlimit="10"/></g><g transform="translate(-46,10) scale(1,1)"><g><path fill="none" stroke="none"/><text fill="#000000" stroke="none" font-family="Arial" font-size="13px" font-style="normal" font-weight="normal" text-decoration="none" x="157.07177734375" y="209.5">points</text></g></g><g transform="translate(-46,10) scale(1,1)"><g><path fill="none" stroke="none"/><text fill="#000000" stroke="none" font-family="Arial" font-size="13px" font-style="normal" font-weight="bold" text-decoration="none" x="133" y="209.5">opt</text></g></g><g transform="translate(-46,10) scale(1,1)"><g><path fill="none" stroke="none"/><text fill="#000000" stroke="none" font-family="Arial" font-size="13px" font-style="normal" font-weight="normal" text-decoration="none" x="147.5" y="242.5">[post in first three]</text></g></g><g transform="translate(-46,10) scale(1,1)"><path fill="none" stroke="#000000" d="M 128 353 L 744 353" stroke-miterlimit="10" stroke-dasharray="10,3"/></g><g transform="translate(-46,10) scale(1,1)"><g><path fill="none" stroke="none"/><text fill="#000000" stroke="none" font-family="Arial" font-size="13px" font-style="normal" font-weight="normal" text-decoration="none" x="147.5" y="380.5">[post not in first three]</text></g></g><g transform="translate(-46,10) scale(1,1)"><rect fill="#C0C0C0" stroke="none" x="463" y="227" width="120.83544921875" height="39" opacity="0.2"/></g><g transform="translate(-46,10) scale(1,1)"><rect fill="#ffffff" stroke="none" x="456" y="220" width="120.83544921875" height="39"/></g><g transform="translate(-46,10) scale(1,1)"><path fill="none" stroke="#000000" d="M 456 220 L 576.83544921875 220 L 576.83544921875 259 L 456 259 L 456 220 Z Z" stroke-miterlimit="10"/></g><g transform="translate(-46,10) scale(1,1)"><g><path fill="none" stroke="none"/><text fill="#000000" stroke="none" font-family="Arial" font-size="13px" font-style="normal" font-weight="bold" text-decoration="none" x="470.175048828125" y="239.5">PointsController</text></g></g><g transform="translate(-46,10) scale(1,1)"><path fill="none" stroke="#000000" d="M 517.5 260 L 517.5 457" stroke-miterlimit="10" stroke-dasharray="3"/></g><g transform="translate(-46,10) scale(1,1)"><rect fill="#C0C0C0" stroke="none" x="639" y="47" width="73.18994140625" height="39" opacity="0.2"/></g><g transform="translate(-46,10) scale(1,1)"><rect fill="#ffffff" stroke="none" x="632" y="40" width="73.18994140625" height="39"/></g><g transform="translate(-46,10) scale(1,1)"><path fill="none" stroke="#000000" d="M 632 40 L 705.18994140625 40 L 705.18994140625 79 L 632 79 L 632 40 Z Z" stroke-miterlimit="10"/></g><g transform="translate(-46,10) scale(1,1)"><g><path fill="none" stroke="none"/><text fill="#000000" stroke="none" font-family="Arial" font-size="13px" font-style="normal" font-weight="bold" text-decoration="none" x="642.947265625" y="59.5">Rewards</text></g></g><g transform="translate(-46,10) scale(1,1)"><path fill="none" stroke="#000000" d="M 669.5 80 L 669.5 354" stroke-miterlimit="10" stroke-dasharray="3"/></g><g transform="translate(-46,10) scale(1,1)"><rect fill="#ffffff" stroke="none" x="288" y="120" width="120" height="56"/></g><g transform="translate(-46,10) scale(1,1)"><path fill="none" stroke="#000000" d="M 288 120 L 408 120 L 408 176 L 288 176 L 288 120 Z Z" stroke-miterlimit="10"/></g><g transform="translate(-46,10) scale(1,1)"><path fill="none" stroke="#000000" d="M 288 120 L 288 142 L 313.1708984375 142 L 324.1708984375 131 L 324.1708984375 120 L 288 120 L 288 120" stroke-miterlimit="10"/></g><g transform="translate(-46,10) scale(1,1)"><g><path fill="none" stroke="none"/><text fill="#000000" stroke="none" font-family="Arial" font-size="13px" font-style="normal" font-weight="normal" text-decoration="none" x="306.451416015625" y="154.5">Post To Route</text></g></g><g transform="translate(-46,10) scale(1,1)"><g><path fill="none" stroke="none"/><text fill="#000000" stroke="none" font-family="Arial" font-size="13px" font-style="normal" font-weight="normal" text-decoration="none" x="293" y="137.5">ref</text></g></g><g transform="translate(-46,10) scale(1,1)"><path fill="none" stroke="#000000" d="M 348 240 L 456 240" stroke-miterlimit="10" stroke-dasharray="3"/></g><g transform="translate(-46,10) scale(1,1)"><path fill="none" stroke="#000000" d="M 445.83732514237585 244.209517756016 L 456 240 L 445.83732514237585 235.790482243984" stroke-miterlimit="10"/></g><g transform="translate(-46,10) scale(1,1)"><g><path fill="none" stroke="none"/><text fill="#000000" stroke="none" font-family="Arial" font-size="13px" font-style="normal" font-weight="normal" text-decoration="none" x="392.5" y="236.5">1 : </text></g></g><g transform="translate(-46,10) scale(1,1)"><g><path fill="none" stroke="none"/><text fill="#000000" stroke="none" font-family="Arial" font-size="13px" font-style="normal" font-weight="normal" text-decoration="none" x="402.5" y="236.5">«create»</text></g></g><g transform="translate(-46,10) scale(1,1)"><path fill="none" stroke="#000000" d="M 517 288 L 662 288" stroke-miterlimit="10"/></g><g transform="translate(-46,10) scale(1,1)"><path fill="#000000" stroke="none" d="M 651.8373251423759 292.209517756016 L 662 288 L 651.8373251423758 283.790482243984"/></g><g transform="translate(-46,10) scale(1,1)"><path fill="none" stroke="#000000" d="M 651.8373251423759 292.209517756016 L 662 288 L 651.8373251423758 283.790482243984 L 651.8373251423759 292.209517756016" stroke-miterlimit="10"/></g><g transform="translate(-46,10) scale(1,1)"><g><path fill="none" stroke="none"/><text fill="#000000" stroke="none" font-family="Arial" font-size="13px" font-style="normal" font-weight="normal" text-decoration="none" x="518.5" y="284.5">2 : updatePoints(userID)</text></g></g><g transform="translate(-46,10) scale(1,1)"><rect fill="#ffffff" stroke="none" x="662" y="288" width="13" height="28"/></g><g transform="translate(-46,10) scale(1,1)"><path fill="none" stroke="#000000" d="M 662 288 L 675 288 L 675 316 L 662 316 L 662 288 Z Z" stroke-miterlimit="10"/></g><g transform="translate(-46,10) scale(1,1)"><path fill="none" stroke="#000000" d="M 517 312 L 169 312" stroke-miterlimit="10"/></g><g transform="translate(-46,10) scale(1,1)"><path fill="#000000" stroke="none" d="M 179.16267485762415 307.790482243984 L 169 312 L 179.16267485762415 316.209517756016"/></g><g transform="translate(-46,10) scale(1,1)"><path fill="none" stroke="#000000" d="M 179.16267485762415 307.790482243984 L 169 312 L 179.16267485762415 316.209517756016 L 179.16267485762415 307.790482243984" stroke-miterlimit="10"/></g><g transform="translate(-46,10) scale(1,1)"><g><path fill="none" stroke="none"/><text fill="#000000" stroke="none" font-family="Arial" font-size="13px" font-style="normal" font-weight="normal" text-decoration="none" x="355.5" y="308.5">3 : notify(pointsEarned)</text></g></g><g transform="translate(-46,10) scale(1,1)"><rect fill="#ffffff" stroke="none" x="156" y="312" width="13" height="28"/></g><g transform="translate(-46,10) scale(1,1)"><path fill="none" stroke="#000000" d="M 156 312 L 169 312 L 169 340 L 156 340 L 156 312 Z Z" stroke-miterlimit="10"/></g></g></svg>